<svg width="1440" height="1063" viewBox="0 0 1440 1063" fill="none" xmlns="http://www.w3.org/2000/svg">
<path d="M0 22.5714C0 22.5714 221.769 66.5905 365.5 76.5227C636.276 95.2341 786.446 14.2464 1056.5 42.9408C1141.79 52.0035 1212.3 71.6816 1297.5 61.6586C1364.49 53.7778 1440 0 1440 0V179.471H0V22.5714Z" fill="#677D40"/>
<path d="M0 1040.99C0 1040.99 240.769 1069.39 384.5 1061.67C655.276 1047.12 765.946 1028 1036 1005.69C1121.29 998.644 1212.3 1002.8 1297.5 1010.6C1364.49 1016.72 1440 1025.13 1440 1025.13V919H0V1040.99Z" fill="#677D40"/>
<rect y="179" width="1440" height="740" fill="#677D40"/>
</svg>
