<svg width="1440" height="1311" viewBox="0 0 1440 1311" fill="none" xmlns="http://www.w3.org/2000/svg">
<path d="M0 0C0 0 223.624 50.7088 365.5 34.6213C592 8.93815 708.74 -16.4217 972.5 25.0828C1084 42.6281 1133.44 50.8221 1297.5 25.0828C1382 11.8258 1440 11.8258 1440 11.8258V100.684H0V0Z" fill="#60472F"/>
<rect y="100.685" width="1440" height="575.316" fill="#60472F"/>
<path d="M0 635C0 635 223.624 685.709 365.5 669.621C592 643.938 708.74 618.578 972.5 660.083C1084 677.628 1133.44 685.822 1297.5 660.083C1382 646.826 1440 646.826 1440 646.826V735.684H0V635Z" fill="#60472F"/>
<rect y="735.685" width="1440" height="575.316" fill="#60472F"/>
</svg>
