<svg width="1440" height="3846" viewBox="0 0 1440 3846" fill="none" xmlns="http://www.w3.org/2000/svg">
<path d="M0 1886.57C0 1886.57 221.769 1930.59 365.5 1940.52C636.276 1959.23 786.446 1878.25 1056.5 1906.94C1141.79 1916 1212.3 1935.68 1297.5 1925.66C1364.49 1917.78 1440 1864 1440 1864V2043.47H0V1886.57Z" fill="#677D40"/>
<path d="M0 2904.99C0 2904.99 240.769 2933.39 384.5 2925.67C655.276 2911.12 765.946 2892 1036 2869.69C1121.29 2862.64 1212.3 2866.8 1297.5 2874.6C1364.49 2880.72 1440 2889.13 1440 2889.13V2783H0V2904.99Z" fill="#677D40"/>
<rect y="2043" width="1440" height="740" fill="#677D40"/>
<path d="M0 957.571C0 957.571 221.769 1001.59 365.5 1011.52C636.276 1030.23 786.446 949.246 1056.5 977.941C1141.79 987.004 1212.3 1006.68 1297.5 996.659C1364.49 988.778 1440 935 1440 935V1114.47H0V957.571Z" fill="#677D40"/>
<path d="M0 1975.99C0 1975.99 240.769 2004.39 384.5 1996.67C655.276 1982.12 765.946 1963 1036 1940.69C1121.29 1933.64 1212.3 1937.8 1297.5 1945.6C1364.49 1951.72 1440 1960.13 1440 1960.13V1854H0V1975.99Z" fill="#677D40"/>
<rect y="1114" width="1440" height="740" fill="#677D40"/>
<path d="M0 22.5714C0 22.5714 221.769 66.5905 365.5 76.5227C636.276 95.2341 786.446 14.2464 1056.5 42.9408C1141.79 52.0035 1212.3 71.6816 1297.5 61.6586C1364.49 53.7778 1440 0 1440 0V179.471H0V22.5714Z" fill="#677D40"/>
<path d="M0 1040.99C0 1040.99 240.769 1069.39 384.5 1061.67C655.276 1047.12 765.946 1028 1036 1005.69C1121.29 998.644 1212.3 1002.8 1297.5 1010.6C1364.49 1016.72 1440 1025.13 1440 1025.13V919H0V1040.99Z" fill="#677D40"/>
<rect y="179" width="1440" height="740" fill="#677D40"/>
<path d="M0 2805.57C0 2805.57 221.769 2849.59 365.5 2859.52C636.276 2878.23 786.446 2797.25 1056.5 2825.94C1141.79 2835 1212.3 2854.68 1297.5 2844.66C1364.49 2836.78 1440 2783 1440 2783V2962.47H0V2805.57Z" fill="#677D40"/>
<path d="M0 3823.99C0 3823.99 240.769 3852.39 384.5 3844.67C655.276 3830.12 765.946 3811 1036 3788.69C1121.29 3781.64 1212.3 3785.8 1297.5 3793.6C1364.49 3799.72 1440 3808.13 1440 3808.13V3702H0V3823.99Z" fill="#677D40"/>
<rect y="2962" width="1440" height="740" fill="#677D40"/>
</svg>
