<svg width="1440" height="2911" viewBox="0 0 1440 2911" fill="none" xmlns="http://www.w3.org/2000/svg">
<path d="M0 951.571C0 951.571 221.769 995.591 365.5 1005.52C636.276 1024.23 786.446 943.246 1056.5 971.941C1141.79 981.004 1212.3 1000.68 1297.5 990.659C1364.49 982.778 1440 929 1440 929V1108.47H0V951.571Z" fill="#677D40"/>
<path d="M0 1969.99C0 1969.99 240.769 1998.39 384.5 1990.67C655.276 1976.12 765.946 1957 1036 1934.69C1121.29 1927.64 1212.3 1931.8 1297.5 1939.6C1364.49 1945.72 1440 1954.13 1440 1954.13V1848H0V1969.99Z" fill="#677D40"/>
<rect y="1108" width="1440" height="740" fill="#677D40"/>
<path d="M0 22.5714C0 22.5714 221.769 66.5905 365.5 76.5227C636.276 95.2341 786.446 14.2464 1056.5 42.9408C1141.79 52.0035 1212.3 71.6816 1297.5 61.6586C1364.49 53.7778 1440 0 1440 0V179.471H0V22.5714Z" fill="#677D40"/>
<path d="M0 1040.99C0 1040.99 240.769 1069.39 384.5 1061.67C655.276 1047.12 765.946 1028 1036 1005.69C1121.29 998.644 1212.3 1002.8 1297.5 1010.6C1364.49 1016.72 1440 1025.13 1440 1025.13V919H0V1040.99Z" fill="#677D40"/>
<rect y="179" width="1440" height="740" fill="#677D40"/>
<path d="M0 1870.57C0 1870.57 221.769 1914.59 365.5 1924.52C636.276 1943.23 786.446 1862.25 1056.5 1890.94C1141.79 1900 1212.3 1919.68 1297.5 1909.66C1364.49 1901.78 1440 1848 1440 1848V2027.47H0V1870.57Z" fill="#677D40"/>
<path d="M0 2888.99C0 2888.99 240.769 2917.39 384.5 2909.67C655.276 2895.12 765.946 2876 1036 2853.69C1121.29 2846.64 1212.3 2850.8 1297.5 2858.6C1364.49 2864.72 1440 2873.13 1440 2873.13V2767H0V2888.99Z" fill="#677D40"/>
<rect y="2027" width="1440" height="740" fill="#677D40"/>
</svg>
